<svg xmlns="http://www.w3.org/2000/svg" style="display: none;">
  <symbol id="icon-home" viewBox="0 0 24 24">
    <path d="M23.121,9.069,15.536,1.483a5.008,5.008,0,0,0-7.072,0L.879,9.069A2.978,2.978,0,0,0,0,11.19v9.817a3,3,0,0,0,3,3H21a3,3,0,0,0,3-3V11.19A2.978,2.978,0,0,0,23.121,9.069ZM15,22.007H9V18.073a3,3,0,0,1,6,0Zm7-1a1,1,0,0,1-1,1H17V18.073a5,5,0,0,0-10,0v3.934H3a1,1,0,0,1-1-1V11.19a1.008,1.008,0,0,1,.293-.707L9.878,2.9a3.008,3.008,0,0,1,4.244,0l7.585,7.586A1.008,1.008,0,0,1,22,11.19Z"></path>
  </symbol>
  <symbol id="icon-lightbulb" viewBox="0 0 24 24">
    <path d="m17.994 2.286a9 9 0 0 0 -14.919 5.536 8.938 8.938 0 0 0 2.793 7.761 6.263 6.263 0 0 1 2.132 4.566v.161a3.694 3.694 0 0 0 3.69 3.69h.62a3.694 3.694 0 0 0 3.69-3.69v-.549a5.323 5.323 0 0 1 1.932-4 8.994 8.994 0 0 0 .062-13.477zm-5.684 19.714h-.62a1.692 1.692 0 0 1 -1.69-1.69s-.007-.26-.008-.31h4.008v.31a1.692 1.692 0 0 1 -1.69 1.69zm4.3-7.741a7.667 7.667 0 0 0 -2.364 3.741h-1.246v-7.184a3 3 0 0 0 2-2.816 1 1 0 0 0 -2 0 1 1 0 0 1 -2 0 1 1 0 0 0 -2 0 3 3 0 0 0 2 2.816v7.184h-1.322a8.634 8.634 0 0 0 -2.448-3.881 7 7 0 0 1 3.951-12.073 7.452 7.452 0 0 1 .828-.046 6.921 6.921 0 0 1 4.652 1.778 6.993 6.993 0 0 1 -.048 10.481z"></path>
  </symbol>
  <symbol id="icon-phone" viewBox="0 0 24 24">
    <path d="M13,1a1,1,0,0,1,1-1A10.011,10.011,0,0,1,24,10a1,1,0,0,1-2,0,8.009,8.009,0,0,0-8-8A1,1,0,0,1,13,1Zm1,5a4,4,0,0,1,4,4,1,1,0,0,0,2,0,6.006,6.006,0,0,0-6-6,1,1,0,0,0,0,2Zm9.093,10.739a3.1,3.1,0,0,1,0,4.378l-.91,1.049c-8.19,7.841-28.12-12.084-20.4-20.3l1.15-1A3.081,3.081,0,0,1,7.26.906c.031.031,1.884,2.438,1.884,2.438a3.1,3.1,0,0,1-.007,4.282L7.979,9.082a12.781,12.781,0,0,0,6.931,6.945l1.465-1.165a3.1,3.1,0,0,1,4.281-.006S23.062,16.708,23.093,16.739Zm-1.376,1.454s-2.393-1.841-2.424-1.872a1.1,1.1,0,0,0-1.549,0c-.027.028-2.044,1.635-2.044,1.635a1,1,0,0,1-.979.152A15.009,15.009,0,0,1,5.9,9.3a1,1,0,0,1,.145-1S7.652,6.282,7.679,6.256a1.1,1.1,0,0,0,0-1.549c-.031-.03-1.872-2.425-1.872-2.425a1.1,1.1,0,0,0-1.51.039l-1.15,1C-2.495,10.105,14.776,26.418,20.721,20.8l.911-1.05A1.121,1.121,0,0,0,21.717,18.193Z"></path>
  </symbol>
  <symbol id="icon-email" viewBox="0 0 24 24">
    <path d="M19,1H5A5.006,5.006,0,0,0,0,6V18a5.006,5.006,0,0,0,5,5H19a5.006,5.006,0,0,0,5-5V6A5.006,5.006,0,0,0,19,1ZM5,3H19a3,3,0,0,1,2.78,1.887l-7.658,7.659a3.007,3.007,0,0,1-4.244,0L2.22,4.887A3,3,0,0,1,5,3ZM19,21H5a3,3,0,0,1-3-3V7.5L8.464,13.96a5.007,5.007,0,0,0,7.072,0L22,7.5V18A3,3,0,0,1,19,21Z"></path>
  </symbol>
  <symbol id="icon-location" viewBox="0 0 512 512">
    <g>
      <path d="M255.104,512.171l-14.871-12.747C219.732,482.258,40.725,327.661,40.725,214.577c0-118.398,95.981-214.379,214.379-214.379   s214.379,95.981,214.379,214.379c0,113.085-179.007,267.682-199.423,284.932L255.104,512.171z M255.104,46.553   c-92.753,0.105-167.918,75.27-168.023,168.023c0,71.042,110.132,184.53,168.023,236.473   c57.892-51.964,168.023-165.517,168.023-236.473C423.022,121.823,347.858,46.659,255.104,46.553z"></path>
      <path d="M255.104,299.555c-46.932,0-84.978-38.046-84.978-84.978s38.046-84.978,84.978-84.978s84.978,38.046,84.978,84.978   S302.037,299.555,255.104,299.555z M255.104,172.087c-23.466,0-42.489,19.023-42.489,42.489s19.023,42.489,42.489,42.489   s42.489-19.023,42.489-42.489S278.571,172.087,255.104,172.087z"></path>
    </g>
  </symbol>
  <symbol id="icon-clock" viewBox="0 0 24 24">
    <path d="M17,10.039c-3.859,0-7,3.14-7,7,0,3.838,3.141,6.961,7,6.961s7-3.14,7-7c0-3.838-3.141-6.961-7-6.961Zm0,11.961c-2.757,0-5-2.226-5-4.961,0-2.757,2.243-5,5-5s5,2.226,5,4.961c0,2.757-2.243,5-5,5Zm1.707-4.707c.391,.391,.391,1.023,0,1.414-.195,.195-.451,.293-.707,.293s-.512-.098-.707-.293l-1-1c-.188-.188-.293-.442-.293-.707v-2c0-.552,.447-1,1-1s1,.448,1,1v1.586l.707,.707Zm5.293-10.293v2c0,.552-.447,1-1,1s-1-.448-1-1v-2c0-1.654-1.346-3-3-3H5c-1.654,0-3,1.346-3,3v1H11c.552,0,1,.448,1,1s-.448,1-1,1H2v9c0,1.654,1.346,3,3,3h4c.552,0,1,.448,1,1s-.448,1-1,1H5c-2.757,0-5-2.243-5-5V7C0,4.243,2.243,2,5,2h1V1c0-.552,.448-1,1-1s1,.448,1,1v1h8V1c0-.552,.447-1,1-1s1,.448,1,1v1h1c2.757,0,5,2.243,5,5Z"></path>
  </symbol>
  <symbol id="icon-eye" viewBox="0 0 24 24">
    <path d="M23.271,9.419C21.72,6.893,18.192,2.655,12,2.655S2.28,6.893.729,9.419a4.908,4.908,0,0,0,0,5.162C2.28,17.107,5.808,21.345,12,21.345s9.72-4.238,11.271-6.764A4.908,4.908,0,0,0,23.271,9.419Zm-1.705,4.115C20.234,15.7,17.219,19.345,12,19.345S3.766,15.7,2.434,13.534a2.918,2.918,0,0,1,0-3.068C3.766,8.3,6.781,4.655,12,4.655s8.234,3.641,9.566,5.811A2.918,2.918,0,0,1,21.566,13.534Z"></path>
    <path d="M12,7a5,5,0,1,0,5,5A5.006,5.006,0,0,0,12,7Zm0,8a3,3,0,1,1,3-3A3,3,0,0,1,12,15Z"></path>
  </symbol>
  <symbol id="icon-check" viewBox="0 0 24 24">
    <path d="M22.319,4.431a1.5,1.5,0,0,0-2.121,0L8.823,15.806,5.8,12.784a1.5,1.5,0,0,0-2.121,2.121l3.727,3.727a1.5,1.5,0,0,0,2.121,0L22.319,6.552A1.5,1.5,0,0,0,22.319,4.431Z"></path>
  </symbol>
  <symbol id="icon-close" viewBox="0 0 24 24">
    <path d="M13.414,12l6.293-6.293a1,1,0,0,0-1.414-1.414L12,10.586,5.707,4.293A1,1,0,0,0,4.293,5.707L10.586,12,4.293,18.293a1,1,0,1,0,1.414,1.414L12,13.414l6.293,6.293a1,1,0,0,0,1.414-1.414Z"></path>
  </symbol>
  <symbol id="icon-arrow-up" viewBox="0 0 24 24">
    <path d="M4.293,15.707a1,1,0,0,0,1.414,0L12,9.414l6.293,6.293a1,1,0,0,0,1.414-1.414l-7-7a1,1,0,0,0-1.414,0l-7,7A1,1,0,0,0,4.293,15.707Z"></path>
  </symbol>
  <symbol id="icon-arrow-right" viewBox="0 0 24 24">
    <path d="M17.92,11.62a1,1,0,0,0-.21-.33l-5-5a1,1,0,0,0-1.42,1.42L14.59,11H7a1,1,0,0,0,0,2h7.59l-3.3,3.29a1,1,0,1,0,1.42,1.42l5-5a1,1,0,0,0,.21-.33A1,1,0,0,0,17.92,11.62Z"></path>
  </symbol>
</svg>
